<svg xmlns="http://www.w3.org/2000/svg" width="600" height="300" viewBox="0 0 600 300"><g transform="matrix(.6851 0 0 1.02545 108.807 -46.507)" stroke="#000000"><path fill="#000000" fill-opacity="0.72399998" d="M-158.818 45.353H716.961V337.908H-158.818z" stroke="none"/><path d="M247.436 40.629l80.658-86.622L145.553 64.024l82.78.426z" fill="#b394cc" fill-rule="evenodd" stroke="none"/><path d="M45.182 183.614l174.308-85.37 53.05 38.354z" fill="#ffe400" fill-rule="evenodd" stroke="none"/><path d="M3.905 99.464l61.958-38.298 122.678 168.512z" fill="#ff2e00" fill-rule="evenodd" stroke="none"/><path d="M123.91 212.667c0 7.132-130.167 119.469-130.167 119.469l-39.23-53.494z" fill="#cc96b1" fill-rule="evenodd" stroke="none"/><path d="M247.436 333.183l80.658-86.621-182.541 110.017 82.78.425z" fill="#b394cc" fill-rule="evenodd" stroke="none"/><path d="M199.71 187.719l124.818 105.204 76.674-24.964z" fill="#93d8b9" fill-rule="evenodd" stroke="none"/><path d="M160.48 244.779l206.842-78.458-16.048 71.325z" fill="#ff6584" fill-rule="evenodd" stroke="none"/><path d="M-12.138 202.489l-1.784 76.674 222.89 19.614z" fill="#ad65ff" fill-rule="evenodd" stroke="none"/><path d="M187.248 16.614l179.74 120.084 42.923-44.807zm0 292.555l179.74 120.084 42.923-44.808z" fill="#656bff" fill-rule="evenodd" stroke="none"/><g transform="translate(437.89 -146.277)" fill-rule="evenodd"><path d="M247.436 40.629l80.658-86.622L145.553 64.024l82.78.426z" fill="#b394cc" stroke="none"/><path d="M45.182 183.614l174.308-85.37 53.05 38.354z" fill="#ffe400" stroke="none"/><path d="M3.905 99.464l61.958-38.298 122.678 168.512z" fill="#ff2e00" stroke="none"/><path d="M123.91 212.667c0 7.132-130.167 119.469-130.167 119.469l-39.23-53.494z" fill="#cc96b1" stroke="none"/><path d="M247.436 333.183l80.658-86.621-182.541 110.017 82.78.425z" fill="#b394cc" stroke="none"/><path d="M199.71 187.719l124.818 105.204 76.674-24.964z" fill="#93d8b9" stroke="none"/><path d="M160.48 244.779l206.842-78.458-16.048 71.325z" fill="#ff6584" stroke="none"/><path d="M-12.138 202.489l-1.784 76.674 222.89 19.614z" fill="#ad65ff" stroke="none"/><path d="M187.248 16.614l179.74 120.084 42.923-44.807zm0 292.555l179.74 120.084 42.923-44.808z" fill="#656bff" stroke="none"/></g><g transform="translate(-437.89 -146.277)" fill-rule="evenodd"><path d="M247.436 40.629l80.658-86.622L145.553 64.024l82.78.426z" fill="#b394cc" stroke="none"/><path d="M45.182 183.614l174.308-85.37 53.05 38.354z" fill="#ffe400" stroke="none"/><path d="M3.905 99.464l61.958-38.298 122.678 168.512z" fill="#ff2e00" stroke="none"/><path d="M123.91 212.667c0 7.132-130.167 119.469-130.167 119.469l-39.23-53.494z" fill="#cc96b1" stroke="none"/><path d="M247.436 333.183l80.658-86.621-182.541 110.017 82.78.425z" fill="#b394cc" stroke="none"/><path d="M199.71 187.719l124.818 105.204 76.674-24.964z" fill="#93d8b9" stroke="none"/><path d="M160.48 244.779l206.842-78.458-16.048 71.325z" fill="#ff6584" stroke="none"/><path d="M-12.138 202.489l-1.784 76.674 222.89 19.614z" fill="#ad65ff" stroke="none"/><path d="M187.248 16.614l179.74 120.084 42.923-44.807zm0 292.555l179.74 120.084 42.923-44.808z" fill="#656bff" stroke="none"/></g><g transform="translate(-437.89 146.277)" fill-rule="evenodd"><path d="M247.436 40.629l80.658-86.622L145.553 64.024l82.78.426z" fill="#b394cc" stroke="none"/><path d="M45.182 183.614l174.308-85.37 53.05 38.354z" fill="#ffe400" stroke="none"/><path d="M3.905 99.464l61.958-38.298 122.678 168.512z" fill="#ff2e00" stroke="none"/><path d="M123.91 212.667c0 7.132-130.167 119.469-130.167 119.469l-39.23-53.494z" fill="#cc96b1" stroke="none"/><path d="M247.436 333.183l80.658-86.621-182.541 110.017 82.78.425z" fill="#b394cc" stroke="none"/><path d="M199.71 187.719l124.818 105.204 76.674-24.964z" fill="#93d8b9" stroke="none"/><path d="M160.48 244.779l206.842-78.458-16.048 71.325z" fill="#ff6584" stroke="none"/><path d="M-12.138 202.489l-1.784 76.674 222.89 19.614z" fill="#ad65ff" stroke="none"/><path d="M187.248 16.614l179.74 120.084 42.923-44.807zm0 292.555l179.74 120.084 42.923-44.808z" fill="#656bff" stroke="none"/></g><g transform="translate(437.89 146.277)" fill-rule="evenodd"><path d="M247.436 40.629l80.658-86.622L145.553 64.024l82.78.426z" fill="#b394cc" stroke="none"/><path d="M45.182 183.614l174.308-85.37 53.05 38.354z" fill="#ffe400" stroke="none"/><path d="M3.905 99.464l61.958-38.298 122.678 168.512z" fill="#ff2e00" stroke="none"/><path d="M123.91 212.667c0 7.132-130.167 119.469-130.167 119.469l-39.23-53.494z" fill="#cc96b1" stroke="none"/><path d="M247.436 333.183l80.658-86.621-182.541 110.017 82.78.425z" fill="#b394cc" stroke="none"/><path d="M199.71 187.719l124.818 105.204 76.674-24.964z" fill="#93d8b9" stroke="none"/><path d="M160.48 244.779l206.842-78.458-16.048 71.325z" fill="#ff6584" stroke="none"/><path d="M-12.138 202.489l-1.784 76.674 222.89 19.614z" fill="#ad65ff" stroke="none"/><path d="M187.248 16.614l179.74 120.084 42.923-44.807zm0 292.555l179.74 120.084 42.923-44.808z" fill="#656bff" stroke="none"/></g></g></svg>